<svg width="30" height="30" viewBox="0 0 30 30" fill="none" xmlns="http://www.w3.org/2000/svg">
    <path d="M6.73162 15.168L14.3388 22.3737C14.6387 22.6578 14.7886 22.7998 14.9708 22.8104C14.9902 22.8116 15.0098 22.8116 15.0292 22.8104C15.2114 22.7998 15.3613 22.6578 15.6612 22.3737L23.2684 15.168C25.3883 13.16 25.6462 9.87395 23.8656 7.55973L23.5037 7.08949C21.3616 4.30551 17.0338 4.76981 15.531 7.94483C15.3189 8.39302 14.6811 8.39302 14.469 7.94483C12.9662 4.76981 8.63839 4.30551 6.49626 7.08949L6.13443 7.55973C4.35376 9.87395 4.61168 13.16 6.73162 15.168Z" fill="#FF6F6F" stroke="#FF6F6F" stroke-width="2"/>
</svg>
