<svg width="24" height="24" viewBox="0 0 24 24" fill="none" xmlns="http://www.w3.org/2000/svg">
    <path d="M5.96042 13.3321L8.60073 13.8434C9.16901 13.9534 9.45315 14.0084 9.65824 14.1909C9.86333 14.3734 9.95104 14.6492 10.1265 15.2008L10.9415 17.7637C11.701 20.1518 12.0807 21.3459 12.8041 21.3534C13.5275 21.3608 13.9318 20.1749 14.7404 17.8029L18.3615 7.1816C19.0152 5.26399 19.3421 4.30518 18.846 3.86384C18.3499 3.4225 17.4357 3.85873 15.6072 4.73117L5.47938 9.56351C3.21764 10.6427 2.08677 11.1822 2.17837 11.8999C2.26997 12.6175 3.50012 12.8557 5.96042 13.3321Z" fill="#F19B3F"/>
</svg>
