<svg width="40" height="40" viewBox="0 0 40 40" fill="none" xmlns="http://www.w3.org/2000/svg">
    <rect width="40" height="40" rx="20" fill="#2329EF"/>
    <path d="M30 29.25C30 29.66 29.66 30 29.25 30H10.75C10.34 30 10 29.66 10 29.25C10 28.84 10.34 28.5 10.75 28.5H29.25C29.66 28.5 30 28.84 30 29.25Z" fill="white"/>
    <path d="M23.39 12.52L12.65 23.26C12.24 23.67 11.58 23.67 11.18 23.26H11.17C9.78 21.86 9.78 19.6 11.17 18.21L18.32 11.06C19.72 9.66001 21.98 9.66001 23.38 11.06C23.79 11.45 23.79 12.12 23.39 12.52Z" fill="white"/>
    <path d="M28.82 16.4899L25.77 13.4399C25.36 13.0299 24.7 13.0299 24.3 13.4399L13.56 24.1799C13.15 24.5799 13.15 25.2399 13.56 25.6499L16.61 28.7099C18.01 30.0999 20.27 30.0999 21.67 28.7099L28.81 21.5599C30.23 20.1599 30.23 17.8899 28.82 16.4899ZM20.76 25.5199L19.55 26.7399C19.3 26.9899 18.89 26.9899 18.63 26.7399C18.38 26.4899 18.38 26.0799 18.63 25.8199L19.85 24.5999C20.09 24.3599 20.51 24.3599 20.76 24.5999C21.01 24.8499 21.01 25.2799 20.76 25.5199ZM24.73 21.5499L22.29 23.9999C22.04 24.2399 21.63 24.2399 21.37 23.9999C21.12 23.7499 21.12 23.3399 21.37 23.0799L23.82 20.6299C24.06 20.3899 24.48 20.3899 24.73 20.6299C24.98 20.8899 24.98 21.2999 24.73 21.5499Z" fill="white"/>
</svg>
