<svg width="40" height="40" viewBox="0 0 40 40" fill="none" xmlns="http://www.w3.org/2000/svg">
    <rect width="40" height="40" rx="20" fill="#2329EF"/>
    <path d="M17 29H23" stroke="white" stroke-width="2" stroke-linecap="round"/>
    <path d="M20 29V24" stroke="white" stroke-width="2" stroke-linecap="round"/>
    <mask id="path-4-inside-1_136_247" fill="white">
        <path d="M13 17.2857C13 17.0201 13 16.8873 13.0251 16.7775C13.1105 16.403 13.403 16.1105 13.7775 16.0251C13.8873 16 14.0201 16 14.2857 16H25.7143C25.9799 16 26.1127 16 26.2225 16.0251C26.597 16.1105 26.8895 16.403 26.9749 16.7775C27 16.8873 27 17.0201 27 17.2857V18C27 18.9288 27 19.3933 26.9487 19.7832C26.5942 22.4756 24.4756 24.5942 21.7832 24.9487C21.3933 25 20.9288 25 20 25V25C19.0712 25 18.6067 25 18.2168 24.9487C15.5244 24.5942 13.4058 22.4756 13.0513 19.7832C13 19.3933 13 18.9288 13 18V17.2857Z"/>
    </mask>
    <path d="M13 17.2857C13 17.0201 13 16.8873 13.0251 16.7775C13.1105 16.403 13.403 16.1105 13.7775 16.0251C13.8873 16 14.0201 16 14.2857 16H25.7143C25.9799 16 26.1127 16 26.2225 16.0251C26.597 16.1105 26.8895 16.403 26.9749 16.7775C27 16.8873 27 17.0201 27 17.2857V18C27 18.9288 27 19.3933 26.9487 19.7832C26.5942 22.4756 24.4756 24.5942 21.7832 24.9487C21.3933 25 20.9288 25 20 25V25C19.0712 25 18.6067 25 18.2168 24.9487C15.5244 24.5942 13.4058 22.4756 13.0513 19.7832C13 19.3933 13 18.9288 13 18V17.2857Z" fill="white" stroke="white" stroke-width="4" stroke-linecap="round" mask="url(#path-4-inside-1_136_247)"/>
    <path d="M19.0385 19.7253C18.8868 20.2563 19.1942 20.8098 19.7253 20.9615C20.2563 21.1132 20.8098 20.8058 20.9615 20.2747L19.0385 19.7253ZM21.7305 13.9432L22.692 14.2179L21.7305 13.9432ZM22.9108 12.6357L22.5394 11.7072L22.5394 11.7072L22.9108 12.6357ZM22.0845 13.0763L22.8268 13.7463L22.0845 13.0763ZM20.9615 20.2747L22.692 14.2179L20.769 13.6685L19.0385 19.7253L20.9615 20.2747ZM23.2822 13.5642L27.3714 11.9285L26.6286 10.0715L22.5394 11.7072L23.2822 13.5642ZM22.692 14.2179C22.7629 13.97 22.7995 13.8451 22.8328 13.7579C22.8593 13.6885 22.8599 13.7096 22.8268 13.7463L21.3422 12.4062C20.9947 12.7911 20.8743 13.2998 20.769 13.6685L22.692 14.2179ZM22.5394 11.7072C22.1834 11.8496 21.6896 12.0213 21.3422 12.4062L22.8268 13.7463C22.7937 13.783 22.7726 13.7846 22.8389 13.7512C22.9223 13.7091 23.0428 13.6599 23.2822 13.5642L22.5394 11.7072Z" fill="white"/>
</svg>
