<svg width="40" height="40" viewBox="0 0 40 40" fill="none" xmlns="http://www.w3.org/2000/svg">
    <rect width="40" height="40" rx="20" fill="#2329EF"/>
    <path d="M11 20.3866C11 20.6535 11 20.7869 11.0841 20.8281C11.1682 20.8692 11.2735 20.7873 11.4842 20.6234L18.7721 14.955C19.362 14.4962 19.6569 14.2669 20 14.2669C20.3431 14.2669 20.638 14.4962 21.2279 14.955L28.5158 20.6234C28.7265 20.7873 28.8318 20.8692 28.9159 20.8281C29 20.7869 29 20.6535 29 20.3866V19.9782C29 19.4978 29 19.2576 28.8983 19.0497C28.7966 18.8418 28.607 18.6944 28.2279 18.3995L21.2279 12.955C20.638 12.4962 20.3431 12.2669 20 12.2669C19.6569 12.2669 19.362 12.4962 18.7721 12.955L11.7721 18.3995C11.393 18.6944 11.2034 18.8418 11.1017 19.0497C11 19.2576 11 19.4978 11 19.9782V20.3866Z" fill="white"/>
    <path fill-rule="evenodd" clip-rule="evenodd" d="M13.2217 20.1141C13 20.5448 13 21.0493 13 22.0584V27C13 27.9428 13 28.4142 13.2929 28.7071C13.5858 29 14.0572 29 15 29H17.65C17.5672 29 17.5 28.9328 17.5 28.85V25C17.5 23.8954 18.3954 23 19.5 23H20.5C21.6046 23 22.5 23.8954 22.5 25V28.85C22.5 28.9328 22.4328 29 22.35 29H25C25.9428 29 26.4142 29 26.7071 28.7071C27 28.4142 27 27.9428 27 27V22.0584C27 21.0493 27 20.5448 26.7783 20.1141C26.5567 19.6833 26.1461 19.39 25.325 18.8035L21.1625 15.8303C20.6011 15.4294 20.3205 15.2289 20 15.2289C19.6795 15.2289 19.3989 15.4294 18.8375 15.8303L14.675 18.8035C13.8539 19.39 13.4433 19.6833 13.2217 20.1141Z" fill="white"/>
    <rect x="24" y="13" width="2" height="4" rx="0.5" fill="white"/>
</svg>
