<svg width="40" height="40" viewBox="0 0 40 40" fill="none" xmlns="http://www.w3.org/2000/svg">
    <rect width="40" height="40" rx="20" fill="#2329EF"/>
    <path d="M24.17 18.06H15.83C14.65 18.06 14.24 17.27 14.93 16.31L19.1 10.47C19.59 9.77001 20.41 9.77001 20.9 10.47L25.07 16.31C25.76 17.27 25.35 18.06 24.17 18.06Z" fill="white"/>
    <path d="M25.59 26H14.41C12.83 26 12.29 24.95 13.22 23.67L17.21 18.06H22.79L26.78 23.67C27.71 24.95 27.17 26 25.59 26Z" fill="white"/>
    <path d="M20.75 26V30C20.75 30.41 20.41 30.75 20 30.75C19.59 30.75 19.25 30.41 19.25 30V26H20.75Z" fill="white"/>
</svg>
