<svg width="40" height="40" viewBox="0 0 40 40" fill="none" xmlns="http://www.w3.org/2000/svg">
    <rect width="40" height="40" rx="20" fill="#2329EF"/>
    <path d="M12.6213 12.5149C12.8032 11.7874 12.8941 11.4236 13.1654 11.2118C13.4366 11 13.8116 11 14.5616 11H25.4384C26.1884 11 26.5634 11 26.8346 11.2118C27.1059 11.4236 27.1968 11.7874 27.3787 12.5149L28.5823 17.3294C28.6792 17.7168 28.7276 17.9104 28.7169 18.0678C28.6892 18.4757 28.416 18.8257 28.0269 18.9515C27.8769 19 27.6726 19 27.2641 19C26.7309 19 26.4644 19 26.2405 18.9478C25.6133 18.8017 25.0948 18.3625 24.8475 17.7678C24.7593 17.5556 24.7164 17.2986 24.6308 16.7846C24.6068 16.6408 24.5948 16.5689 24.5812 16.5499C24.5413 16.4944 24.4587 16.4944 24.4188 16.5499C24.4052 16.5689 24.3932 16.6408 24.3692 16.7846L24.2877 17.2738C24.2791 17.3257 24.2747 17.3516 24.2704 17.3743C24.0939 18.3005 23.2946 18.9777 22.352 18.9995C22.3289 19 22.3026 19 22.25 19C22.1974 19 22.1711 19 22.148 18.9995C21.2054 18.9777 20.4061 18.3005 20.2296 17.3743C20.2253 17.3516 20.2209 17.3257 20.2123 17.2738L20.1308 16.7846C20.1068 16.6408 20.0948 16.5689 20.0812 16.5499C20.0413 16.4944 19.9587 16.4944 19.9188 16.5499C19.9052 16.5689 19.8932 16.6408 19.8692 16.7846L19.7877 17.2738C19.7791 17.3257 19.7747 17.3516 19.7704 17.3743C19.5939 18.3005 18.7946 18.9777 17.852 18.9995C17.8289 19 17.8026 19 17.75 19C17.6974 19 17.6711 19 17.648 18.9995C16.7054 18.9777 15.9061 18.3005 15.7296 17.3743C15.7253 17.3516 15.7209 17.3257 15.7123 17.2738L15.6308 16.7846C15.6068 16.6408 15.5948 16.5689 15.5812 16.5499C15.5413 16.4944 15.4587 16.4944 15.4188 16.5499C15.4052 16.5689 15.3932 16.6408 15.3692 16.7846C15.2836 17.2986 15.2407 17.5556 15.1525 17.7678C14.9052 18.3625 14.3867 18.8017 13.7595 18.9478C13.5356 19 13.2691 19 12.7359 19C12.3274 19 12.1231 19 11.9731 18.9515C11.584 18.8257 11.3108 18.4757 11.2831 18.0678C11.2724 17.9104 11.3208 17.7168 11.4177 17.3294L12.6213 12.5149Z" fill="white"/>
    <path fill-rule="evenodd" clip-rule="evenodd" d="M13.0175 20.5002C13 20.9211 13 21.4152 13 22V28C13 28.9428 13 29.4142 13.2929 29.7071C13.5858 30 14.0572 30 15 30H18V26C18 25.4477 18.4477 25 19 25H21C21.5523 25 22 25.4477 22 26V30H25C25.9428 30 26.4142 30 26.7071 29.7071C27 29.4142 27 28.9428 27 28V22C27 21.4152 27 20.9211 26.9825 20.5002C26.6177 20.4993 26.2446 20.4889 25.9002 20.4087C25.3808 20.2877 24.904 20.0519 24.5 19.7267C23.9159 20.1969 23.1803 20.4807 22.3867 20.499C22.3456 20.5 22.3022 20.5 22.2609 20.5H22.2608L22.25 20.5L22.2392 20.5H22.2391C22.1978 20.5 22.1544 20.5 22.1133 20.499C21.3197 20.4807 20.5841 20.1969 20 19.7267C19.4159 20.1969 18.6803 20.4807 17.8867 20.499C17.8456 20.5 17.8022 20.5 17.7609 20.5H17.7608L17.75 20.5L17.7392 20.5H17.7391C17.6978 20.5 17.6544 20.5 17.6133 20.499C16.8197 20.4807 16.0841 20.1969 15.5 19.7267C15.096 20.0519 14.6192 20.2877 14.0998 20.4087C13.7554 20.4889 13.3823 20.4993 13.0175 20.5002Z" fill="white"/>
</svg>
